<?xml version="1.0" encoding="utf-8"?>
<!-- Generator: Adobe Illustrator 25.0.1, SVG Export Plug-In . SVG Version: 6.00 Build 0)  -->
<svg version="1.1" id="Layer_1" xmlns="http://www.w3.org/2000/svg" xmlns:xlink="http://www.w3.org/1999/xlink" x="0px" y="0px"
	 viewBox="0 0 8.6 8.5" style="enable-background:new 0 0 8.6 8.5;" xml:space="preserve">
<style type="text/css">
	.st0{fill:none;stroke:#58A6FF;stroke-width:0.5;stroke-miterlimit:10;}
</style>
<path class="st0" d="M4.3,0.3c-2.2,0-4,1.8-4,4s1.8,4,4,4s4-1.8,4-4S6.5,0.3,4.3,0.3z M4.3,1.3c0.3,0,0.6,0.1,0.9,0.2
	C5,1.7,4.8,1.8,4.8,2c0,0.2,0.7,0.1,0.7,0.5c0,0.3-0.4,0.3-0.1,0.7c0.3,0.3-0.6,1-0.7,1.4c0,0.8,0.8,1,1.5,1c0.4,0,0.5,0.2,0.5,0.4
	C6.2,6.8,5.3,7.3,4.3,7.3c-0.4,0-0.7-0.1-1.1-0.2c0.2-0.4-0.3-1.3-0.8-1.6c-0.2-0.2-0.7-0.1-1-0.2C1.4,5,1.3,4.7,1.3,4.4
	c0-0.1,0.1-0.1,0.2-0.1c0.2,0,0.5,0.4,0.6,0.3c0.2,0-0.7-1.3-0.3-1.6C1.9,3,2.3,3.5,2.2,2.9C2.1,2.4,2.5,2.6,2.8,2.5
	C3.1,2.4,3.3,2.1,3,1.9c-0.1,0-0.1-0.1-0.2-0.2C3.2,1.5,3.7,1.3,4.3,1.3L4.3,1.3z M6.6,2.4C6.8,2.6,6.9,2.8,7,3.1c0,0,0,0,0,0
	c0,0.1-0.1,0.1-0.2,0.2C6.5,3.6,6.5,3.1,6.4,3C6.2,2.9,5.8,3,5.7,2.9C5.6,2.7,6.2,2.5,6.6,2.4z"/>
</svg>
