<?xml version="1.0" encoding="utf-8"?>
<!-- Generator: Adobe Illustrator 25.0.1, SVG Export Plug-In . SVG Version: 6.00 Build 0)  -->
<svg version="1.1" id="Layer_1" xmlns="http://www.w3.org/2000/svg" xmlns:xlink="http://www.w3.org/1999/xlink" x="0px" y="0px"
	 viewBox="0 0 25.5 25.6" style="enable-background:new 0 0 25.5 25.6;" xml:space="preserve">
<style type="text/css">
	.st0{fill:none;stroke:#58A6FF;stroke-width:1.5;stroke-miterlimit:10;}
</style>
<path class="st0" d="M21.2,21.2h-3.6v-5.6c0-1.3,0-3-1.9-3c-1.9,0-2.1,1.4-2.1,2.9v5.7h-3.6V9.8h3.4v1.6h0c0.5-0.9,1.6-1.9,3.4-1.9
	c3.6,0,4.3,2.4,4.3,5.5L21.2,21.2L21.2,21.2z M6.1,8.2C4.9,8.2,4,7.3,4,6.2C4,5,4.9,4.1,6.1,4.1c1.1,0,2.1,0.9,2.1,2.1
	C8.1,7.3,7.2,8.2,6.1,8.2z M7.9,21.2H4.3V9.8h3.6V21.2z M23,0.8H2.5c-1,0-1.8,0.8-1.8,1.7v20.5c0,1,0.8,1.7,1.8,1.7H23
	c1,0,1.8-0.8,1.8-1.7V2.5C24.7,1.6,23.9,0.8,23,0.8L23,0.8z"/>
</svg>
