<svg id="Layer_1" data-name="Layer 1" xmlns="http://www.w3.org/2000/svg" viewBox="0 0 76 76"><defs><style>.cls-1{fill:#ed2024;}.cls-2{fill:#fff;}</style></defs><path class="cls-1" d="M72.79,20.41A9.13,9.13,0,0,0,66.37,14C60.71,12.42,38,12.42,38,12.42S15.29,12.42,9.63,14a9.13,9.13,0,0,0-6.42,6.46C1.69,26.11,1.69,38,1.69,38s0,11.89,1.52,17.59a9.13,9.13,0,0,0,6.42,6.46C15.29,63.58,38,63.58,38,63.58s22.71,0,28.37-1.53a9.13,9.13,0,0,0,6.42-6.46C74.31,49.89,74.31,38,74.31,38s0-11.89-1.52-17.59Z"/><path class="cls-2" d="M19.75,26.45a2.42,2.42,0,0,0-2.42,2.42V47.12a2.42,2.42,0,0,0,2.42,2.43h36.5a2.42,2.42,0,0,0,2.42-2.43V28.87a2.42,2.42,0,0,0-2.42-2.42Zm36.5,20.67H19.75V28.87h36.5C56.25,47.54,56.26,47.12,56.25,47.12Z"/><path class="cls-2" d="M25.09,42H23.83A1.23,1.23,0,0,0,22.59,43a1.21,1.21,0,0,0,1.21,1.35h1.26a1.23,1.23,0,0,0,1.23-1.07A1.21,1.21,0,0,0,25.09,42Z"/><path class="cls-2" d="M28.29,36.79H27.06a1.23,1.23,0,0,0-1.24,1.07A1.21,1.21,0,0,0,27,39.21h1.29a1.21,1.21,0,1,0,0-2.42Z"/><path class="cls-2" d="M33.52,39.21h1.23a1.21,1.21,0,1,0,0-2.42H33.49a1.21,1.21,0,0,0-1.21,1.35A1.23,1.23,0,0,0,33.52,39.21Z"/><path class="cls-2" d="M40,39.21h1.23a1.21,1.21,0,1,0,0-2.42H40a1.21,1.21,0,0,0-1.21,1.35A1.23,1.23,0,0,0,40,39.21Z"/><path class="cls-2" d="M47.7,36.79H46.44a1.23,1.23,0,0,0-1.24,1.07,1.21,1.21,0,0,0,1.21,1.35h1.26a1.21,1.21,0,1,0,0-2.42Z"/><path class="cls-2" d="M50.9,31.62H49.67a1.24,1.24,0,0,0-1.24,1.07A1.21,1.21,0,0,0,49.64,34h1.29a1.21,1.21,0,0,0,1.2-1.35A1.23,1.23,0,0,0,50.9,31.62Z"/><path class="cls-2" d="M43.18,34h1.26a1.21,1.21,0,1,0,0-2.42H43.21A1.24,1.24,0,0,0,42,32.69,1.21,1.21,0,0,0,43.18,34Z"/><path class="cls-2" d="M36.72,34H38a1.21,1.21,0,1,0,0-2.42H36.75a1.24,1.24,0,0,0-1.24,1.07A1.21,1.21,0,0,0,36.72,34Z"/><path class="cls-2" d="M30.26,34h1.26a1.21,1.21,0,1,0,0-2.42H30.29a1.24,1.24,0,0,0-1.24,1.07A1.21,1.21,0,0,0,30.26,34Z"/><path class="cls-2" d="M23.8,34h1.26a1.21,1.21,0,1,0,0-2.42H23.83a1.24,1.24,0,0,0-1.24,1.07A1.21,1.21,0,0,0,23.8,34Z"/><path class="cls-2" d="M52.22,42H51A1.22,1.22,0,0,0,49.73,43a1.2,1.2,0,0,0,1.2,1.35h1.26a1.24,1.24,0,0,0,1.24-1.07A1.21,1.21,0,0,0,52.22,42Z"/><path class="cls-2" d="M45.76,42H30.29A1.23,1.23,0,0,0,29.05,43a1.21,1.21,0,0,0,1.21,1.35H45.73A1.23,1.23,0,0,0,47,43.31,1.2,1.2,0,0,0,45.76,42Z"/></svg>